<svg width="173" height="25" viewBox="0 0 173 25" fill="none" xmlns="http://www.w3.org/2000/svg">
<path d="M1.344 24H0.96L10.528 1.6L10.88 1.44L18.944 24H16.224L13.728 16.96H4.384L1.344 24ZM9.536 5.056L4.512 16.64H13.632L9.536 5.056ZM34.1538 24C33.2791 24 32.6071 23.808 32.1378 23.424C31.6898 23.04 31.4551 22.656 31.4338 22.272L31.4018 21.728V11.68C31.4018 9.99467 30.9644 8.91733 30.0898 8.448C29.6418 8.23467 29.0871 8.128 28.4258 8.128C27.0604 8.128 25.8338 8.672 24.7458 9.76C23.6578 10.8267 23.1138 11.7867 23.1138 12.64V24H20.8738V8H23.1138V11.648C23.4764 10.7307 24.1484 9.87733 25.1298 9.088C26.1111 8.27733 27.1884 7.872 28.3618 7.872C29.5351 7.872 30.4844 7.98933 31.2098 8.224C31.9564 8.43733 32.5004 8.74667 32.8418 9.152C33.3751 9.81333 33.6418 10.6667 33.6418 11.712V21.728C33.6418 22.3467 33.7591 22.8267 33.9938 23.168C34.2498 23.488 34.5058 23.6587 34.7618 23.68L35.1138 23.744H36.1058V24H34.1538ZM50.9335 24C49.4828 24 48.4908 23.7227 47.9575 23.168C47.4668 22.6987 47.2215 22.2933 47.2215 21.952V21.28C46.1762 23.1787 44.5015 24.128 42.1975 24.128C39.5095 24.128 37.9842 22.912 37.6215 20.48C37.5788 20.224 37.5575 19.968 37.5575 19.712C37.5575 19.4347 37.6002 19.136 37.6855 18.816C37.7708 18.496 38.0162 18.144 38.4215 17.76C39.2322 16.992 41.0135 16.5227 43.7655 16.352C44.4482 16.288 45.0775 16.256 45.6535 16.256C46.2295 16.256 46.7522 16.2773 47.2215 16.32V11.008C47.1788 10.9867 47.1788 10.8907 47.2215 10.72C47.2642 10.528 47.2215 10.2933 47.0935 10.016C46.9868 9.71733 46.8375 9.42933 46.6455 9.152C46.4535 8.87467 46.1122 8.64 45.6215 8.448C45.1308 8.23467 44.4908 8.128 43.7015 8.128C42.9122 8.128 41.9842 8.27733 40.9175 8.576C39.8722 8.85333 39.1042 9.13067 38.6135 9.408L38.4855 9.184C40.3842 8.30933 42.3148 7.872 44.2775 7.872C46.4748 7.872 47.9255 8.26667 48.6295 9.056C49.1842 9.67467 49.4615 10.3253 49.4615 11.008V21.728C49.4615 22.3467 49.5788 22.8267 49.8135 23.168C50.0695 23.488 50.3255 23.6587 50.5815 23.68L50.9335 23.744H51.9255V24H50.9335ZM42.7095 23.872C43.8402 23.872 44.8535 23.488 45.7495 22.72C46.6668 21.9307 47.1575 21.1733 47.2215 20.448V16.576C46.6455 16.5333 46.0588 16.512 45.4615 16.512C44.8855 16.512 44.3095 16.544 43.7335 16.608C42.1122 16.8 41.0562 17.1627 40.5655 17.696C40.0748 18.2293 39.8295 18.9653 39.8295 19.904C39.8295 20.0747 39.8402 20.2667 39.8615 20.48C40.0535 22.7413 41.0028 23.872 42.7095 23.872ZM65.0898 24H64.6738L67.4578 1.6H68.5138L75.2338 22.304L81.9218 1.6H82.9778L85.7618 24H83.1058L80.8978 6.08L75.1058 24H73.0898L67.2338 6.304L65.0898 24ZM92.544 24C91.6693 24 90.9973 23.808 90.528 23.424C90.08 23.04 89.8453 22.656 89.824 22.272L89.792 21.728V8H92.032V21.728C92.032 22.3467 92.1493 22.8267 92.384 23.168C92.64 23.488 92.8853 23.6587 93.12 23.68L93.504 23.744H94.496V24H92.544ZM89.984 4.416C89.728 4.16 89.6 3.84 89.6 3.456C89.6 3.072 89.728 2.752 89.984 2.496C90.24 2.21866 90.56 2.08 90.944 2.08C91.328 2.08 91.648 2.21866 91.904 2.496C92.1813 2.752 92.32 3.072 92.32 3.456C92.32 3.84 92.1813 4.16 91.904 4.416C91.648 4.672 91.328 4.8 90.944 4.8C90.56 4.8 90.24 4.672 89.984 4.416ZM102.548 9.376V8.704C101.588 9.088 100.714 9.86667 99.9243 11.04C99.1349 12.192 98.7189 13.28 98.6763 14.304V24H96.4363V8H98.6763V13.088C99.0176 11.8507 99.6683 10.688 100.628 9.6C101.588 8.49067 102.676 7.91467 103.892 7.872H104.02C104.447 7.872 104.799 8.02133 105.076 8.32C105.375 8.59733 105.524 8.94933 105.524 9.376C105.524 9.80267 105.375 10.1547 105.076 10.432C104.799 10.7093 104.447 10.848 104.02 10.848C103.594 10.848 103.242 10.7093 102.964 10.432C102.687 10.1547 102.548 9.80267 102.548 9.376ZM120.184 24C118.733 24 117.741 23.7227 117.208 23.168C116.717 22.6987 116.472 22.2933 116.472 21.952V21.28C115.426 23.1787 113.752 24.128 111.448 24.128C108.76 24.128 107.234 22.912 106.872 20.48C106.829 20.224 106.808 19.968 106.808 19.712C106.808 19.4347 106.85 19.136 106.936 18.816C107.021 18.496 107.266 18.144 107.672 17.76C108.482 16.992 110.264 16.5227 113.016 16.352C113.698 16.288 114.328 16.256 114.904 16.256C115.48 16.256 116.002 16.2773 116.472 16.32V11.008C116.429 10.9867 116.429 10.8907 116.472 10.72C116.514 10.528 116.472 10.2933 116.344 10.016C116.237 9.71733 116.088 9.42933 115.896 9.152C115.704 8.87467 115.362 8.64 114.872 8.448C114.381 8.23467 113.741 8.128 112.952 8.128C112.162 8.128 111.234 8.27733 110.168 8.576C109.122 8.85333 108.354 9.13067 107.864 9.408L107.736 9.184C109.634 8.30933 111.565 7.872 113.528 7.872C115.725 7.872 117.176 8.26667 117.88 9.056C118.434 9.67467 118.712 10.3253 118.712 11.008V21.728C118.712 22.3467 118.829 22.8267 119.064 23.168C119.32 23.488 119.576 23.6587 119.832 23.68L120.184 23.744H121.176V24H120.184ZM111.96 23.872C113.09 23.872 114.104 23.488 115 22.72C115.917 21.9307 116.408 21.1733 116.472 20.448V16.576C115.896 16.5333 115.309 16.512 114.712 16.512C114.136 16.512 113.56 16.544 112.984 16.608C111.362 16.8 110.306 17.1627 109.816 17.696C109.325 18.2293 109.08 18.9653 109.08 19.904C109.08 20.0747 109.09 20.2667 109.112 20.48C109.304 22.7413 110.253 23.872 111.96 23.872ZM136.216 24C135.342 24 134.67 23.808 134.2 23.424C133.752 23.04 133.518 22.656 133.496 22.272L133.464 21.728V11.68C133.464 9.99467 133.027 8.91733 132.152 8.448C131.704 8.23467 131.15 8.128 130.488 8.128C129.123 8.128 127.896 8.672 126.808 9.76C125.72 10.8267 125.176 11.7867 125.176 12.64V24H122.936V8H125.176V11.648C125.539 10.7307 126.211 9.87733 127.192 9.088C128.174 8.27733 129.251 7.872 130.424 7.872C131.598 7.872 132.547 7.98933 133.272 8.224C134.019 8.43733 134.563 8.74667 134.904 9.152C135.438 9.81333 135.704 10.6667 135.704 11.712V21.728C135.704 22.3467 135.822 22.8267 136.056 23.168C136.312 23.488 136.568 23.6587 136.824 23.68L137.176 23.744H138.168V24H136.216ZM139.468 16.576C139.468 13.8027 140.14 11.6587 141.484 10.144C142.828 8.62933 144.844 7.872 147.532 7.872C148.79 7.872 150.06 8.192 151.34 8.832V0.0319996H153.58V21.728C153.58 22.3467 153.697 22.8267 153.932 23.168C154.188 23.488 154.444 23.6587 154.7 23.68L155.052 23.744H156.044V24H154.092C153.217 24 152.545 23.808 152.076 23.424C151.628 23.04 151.393 22.656 151.372 22.272L151.34 21.728V21.216C150.934 21.9627 150.262 22.624 149.324 23.2C148.385 23.776 147.276 24.064 145.996 24.064C141.644 23.9573 139.468 21.4613 139.468 16.576ZM146.028 23.808C147.457 23.808 148.684 23.424 149.708 22.656C150.732 21.888 151.276 21.1307 151.34 20.384V9.12C149.825 8.45867 148.524 8.128 147.436 8.128C145.537 8.128 144.108 8.87467 143.148 10.368C142.188 11.84 141.708 13.9093 141.708 16.576C141.708 21.3973 143.148 23.808 146.028 23.808ZM171.184 24C169.733 24 168.741 23.7227 168.208 23.168C167.717 22.6987 167.472 22.2933 167.472 21.952V21.28C166.426 23.1787 164.752 24.128 162.448 24.128C159.76 24.128 158.234 22.912 157.872 20.48C157.829 20.224 157.808 19.968 157.808 19.712C157.808 19.4347 157.85 19.136 157.936 18.816C158.021 18.496 158.266 18.144 158.672 17.76C159.482 16.992 161.264 16.5227 164.016 16.352C164.698 16.288 165.328 16.256 165.904 16.256C166.48 16.256 167.002 16.2773 167.472 16.32V11.008C167.429 10.9867 167.429 10.8907 167.472 10.72C167.514 10.528 167.472 10.2933 167.344 10.016C167.237 9.71733 167.088 9.42933 166.896 9.152C166.704 8.87467 166.362 8.64 165.872 8.448C165.381 8.23467 164.741 8.128 163.952 8.128C163.162 8.128 162.234 8.27733 161.168 8.576C160.122 8.85333 159.354 9.13067 158.864 9.408L158.736 9.184C160.634 8.30933 162.565 7.872 164.528 7.872C166.725 7.872 168.176 8.26667 168.88 9.056C169.434 9.67467 169.712 10.3253 169.712 11.008V21.728C169.712 22.3467 169.829 22.8267 170.064 23.168C170.32 23.488 170.576 23.6587 170.832 23.68L171.184 23.744H172.176V24H171.184ZM162.96 23.872C164.09 23.872 165.104 23.488 166 22.72C166.917 21.9307 167.408 21.1733 167.472 20.448V16.576C166.896 16.5333 166.309 16.512 165.712 16.512C165.136 16.512 164.56 16.544 163.984 16.608C162.362 16.8 161.306 17.1627 160.816 17.696C160.325 18.2293 160.08 18.9653 160.08 19.904C160.08 20.0747 160.09 20.2667 160.112 20.48C160.304 22.7413 161.253 23.872 162.96 23.872Z" fill="#332828"/>
</svg>
